<?xml version="1.0" standalone="no"?>
<!DOCTYPE svg PUBLIC "-//W3C//DTD SVG 20010904//EN"
 "http://www.w3.org/TR/2001/REC-SVG-20010904/DTD/svg10.dtd">
<svg version="1.0" xmlns="http://www.w3.org/2000/svg"
 width="640.000000pt" height="1280.000000pt" viewBox="0 0 640.000000 1280.000000"
 preserveAspectRatio="xMidYMid meet">
<metadata>
Created by potrace 1.15, written by Peter Selinger 2001-2017
</metadata>
<g transform="translate(0.000000,1280.000000) scale(0.100000,-0.100000)"
fill="#000000" stroke="none">
<path d="M3505 12781 c-43 -26 -77 -69 -140 -176 -133 -226 -238 -552 -315
-974 -44 -244 -62 -378 -135 -996 -36 -308 -75 -621 -86 -695 -18 -120 -19
-164 -13 -407 l7 -273 -40 0 -41 0 -7 -242 c-3 -134 -12 -459 -19 -723 l-13
-480 -132 -363 -131 -363 -10 -652 c-12 -782 -26 -1758 -40 -2717 -6 -388 -15
-1000 -20 -1360 -5 -360 -13 -867 -16 -1126 l-7 -471 61 -38 c58 -35 62 -40
62 -74 0 -33 -6 -41 -65 -86 l-65 -49 0 -91 0 -91 38 -36 c327 -310 1243 -392
1942 -173 103 33 288 121 353 170 46 34 48 38 43 73 -3 20 -7 66 -8 101 -3 60
-5 65 -41 96 -21 18 -58 43 -82 56 -25 13 -45 31 -45 39 0 9 32 31 74 53 40
21 80 45 88 55 16 18 17 -89 -11 2217 -6 479 -16 1239 -21 1690 -6 451 -14
1170 -20 1598 l-9 777 -126 390 -126 389 -9 563 c-6 310 -13 632 -16 716 l-6
152 -37 0 -38 0 -7 322 c-5 245 -11 352 -26 441 -20 119 -66 505 -95 797 -83
812 -173 1224 -363 1656 -126 285 -197 361 -287 305z"/>
</g>
</svg>
